<svg xmlns="http://www.w3.org/2000/svg" viewBox="0 0 601 404"><style>.prefix__st2{fill-rule:evenodd;clip-rule:evenodd}</style><path d="M303.2 36.7v336.7c96.3 0 258.6-50.7 258.6-174.4 0-117.3-207-177.7-258.6-162.3z" fill="#ffd200"/><path d="M303.2 373.9V32C179.1 32 43.5 98.4 43.5 202.5c0 101.6 118.5 171.4 259.7 171.4z" fill-rule="evenodd" clip-rule="evenodd" fill="#13b5ea"/><path class="prefix__st2" d="M443.5 203.7c-6.1-15.4 33.4-6.9 44.2-15.6h-75.3v10c-1.3-2.2-3.6-3.7-6.4-3.7-4.3 0-7.5 3.3-7.5 7.4 0 .8.2 1.5.4 2.3l-49.7-3.2-7.7-7v22.9l7.7-8 30.2-2.8 10.9 11.6h111l13.1-13.8h-70.9zm-42.9 7.2l-13.1-5.8 11.3-1c1 3 3.7 5.2 7.1 5.2 2.8 0 5.1-1.6 6.4-3.9v.9c-3.4 4.1-7.1 5.6-11.7 4.6zM465 155.9c-6.1-15.6 33.2-6.9 44.2-15.7h-75.5v9.9c-1.3-2.2-3.7-3.6-6.4-3.6-4.1 0-7.5 3.4-7.5 7.5 0 .8.2 1.5.4 2.3l-49.5-3.2-7.7-7.2V169l7.7-8 30.1-2.8 10.9 11.6h111.2L536 156h-71zm-42.9 7.3l-13.2-5.8 11.3-1c1 3 3.8 5.2 7.1 5.2 2.7 0 5-1.5 6.4-3.6v.7c-3.3 4-7 5.4-11.6 4.5zM424 252.4c-6.1-15.6 33.4-6.9 44.2-15.7h-75.5v9.8c-1.3-2.1-3.6-3.6-6.4-3.6-4.1 0-7.4 3.4-7.4 7.5 0 .8.2 1.5.4 2.3l-49.7-3.3-7.7-7.2v23.1l7.7-8 30.1-2.8 11 11.6 111-.2 13.1-13.6H424zm-42.9 7.3l-13.1-5.8 11.3-1c1 3 3.7 5.2 7 5.2 2.8 0 5.1-1.4 6.4-3.6v.5c-3.3 4.2-7.1 5.6-11.6 4.7z"/><path d="M300.9 29.3c-145.1 0-263.1 78.1-263.1 174.1s118 174.1 263.1 174.1S564 299.4 564 203.4 446 29.3 300.9 29.3zm-16.2 8.1c-6.3 7.3-12.2 15.1-17.5 23.5h-25c10.2-8 21.4-15.7 33.6-23 2.9-.2 5.9-.4 8.9-.5zm-42.3 75.2c-2.1 6-3.9 12.1-5.6 18.2h-56c12.5-22.8 30.9-44.9 55.5-65.2h27.9c-5.5 9.1-10.5 18.8-14.8 28.9h-17.3v18.1h10.3zm-68.9 22.7l-.6 1.2c-10.2 21.1-15.7 42.7-16.4 64h-3.3v-56.2h-22.9v56.2H90.6c1.9-21.6 11.1-43.7 27.5-65.2h55.4zm-51.9-4.5c18.7-22.9 45.7-44.9 81.4-65.2h26.2c-23.8 20.4-41.5 42.4-53.5 65.2h-54.1zm75 74.1l1.4 14.9h-11l1.6-14.9h8zm-7.4-4.5l1.8-16.5c.4-3.7.8-7.1 1.2-10.6.2-2.1.4-4.1.6-6.2 0-1.3.2-2.5.2-3.7.4 5.6.8 9.6 1 12.5.2 2.7.6 5.4.8 7.7l1.6 16.7h-7.2zm-59 4.5v27.8c0 3.7-.6 6.4-1.3 7.9-.8 1.7-2.3 2.5-4.2 2.5-1.5 0-2.9-1-3.7-2.5-.8-1.7-1.4-4.4-1.4-7.9v-14.3H97.1v9.3c0 12.1 2.3 21.2 6.9 27.4 4.6 6.2 11.6 9.3 20.6 9.3 9.5 0 16.6-3.1 21.4-9.1 4.8-6.2 7.1-15.4 7.1-27.6v-22.8h3.2c0 2.1 0 4.2.1 6.4.4 11.7 2.2 23.3 5.4 34.6l-2.6 16.7h8.3c.9 2.2 1.9 4.5 2.9 6.7h-61.1c-12-18.5-18.4-37.8-18.9-57.4-.1-2.3 0-4.6 0-6.9h39.8zm30.6 0h7.4l-4.6 29.2c-1.5-7.6-2.4-15.3-2.7-23.1-.1-1.9-.1-4-.1-6.1zm11.7 69.1c1.6 3.3 3.3 6.5 5.2 9.7 11.5 19.9 27.5 38.5 47.8 55h-34.8c-28.8-15.6-51.6-33.1-68.1-51.8-3.7-4.2-7.1-8.5-10.2-12.9h60.1zm9.2 7.4c-1.4-2.5-2.8-4.9-4.1-7.4h57.8c6 23 15.2 44.9 27.9 64.7h-30.5c-22-17.1-39.2-36.5-51.1-57.3zm-6.4-12.1c-1-2.2-2-4.4-3-6.7h9.9l2.3-21.4h15.6l2.3 21.4h24.3l-8.9-57.7h9c-.1 21.7 2.3 43.4 7.4 64.4h-58.9zm41.9-68.9l-8.7-56.2h-30.6l-8.9 56.2h-8.1c.8-20.6 6-41.5 15.9-61.9.5-1.1 1.1-2.2 1.6-3.3h57.2c-5.3 21.1-8.3 43.1-8.7 65.2h-9.7zm48.7-161.8c-11.2 7.1-21.6 14.5-31 22.2h-23.4c13.6-7.3 28.3-14.4 44.2-21.2 3.4-.3 6.8-.7 10.2-1zm-26.3 3.3c-13.4 6.1-25.8 12.4-37.4 18.9h-32.7c21.5-8.4 45.1-14.8 70.1-18.9zm-81.4 23.6H194c-34.4 20.3-60.5 42.4-78.4 65.2H71.3c19.7-26.3 49.9-48.8 86.9-65.2zm-90.1 69.8h44.2c-15.7 21.5-24.4 43.5-26.2 65.2H45.7c.7-23.2 8.6-45.3 22.4-65.2zm-22.4 69.6h40.1c-.1 2.4-.1 4.7-.1 7.1.5 19.5 6.6 38.8 18.1 57.3H66.6c-13.1-19.8-20.6-41.5-20.9-64.4zM69.9 274h37c3.7 5.4 7.8 10.7 12.4 15.9 15.5 17.5 36.3 34 62.1 48.8h-28.7c-35.5-16.6-64.1-38.8-82.8-64.7zm92.8 69.1h26.7c13.8 7.4 29 14.4 45.5 20.9-25.9-4.5-50.2-11.6-72.2-20.9zm94 24.1c-21.1-7.3-40.3-15.3-57.5-24h31.9c12 9.2 25.5 17.7 40.3 25.4-4.9-.4-9.8-.8-14.7-1.4zm26.5 2.1l-2-.9c-15.6-7.6-29.7-16-42.3-25.2h27.5c6.4 9.3 13.5 18.2 21.6 26.3-1.7-.1-3.3-.1-4.8-.2zm9.4-1.7c-7.6-7.6-14.5-15.8-20.7-24.5h20.7v24.5zm0-28.9h-23.8C255.7 319 246.2 297 240.1 274h52.5v64.7zm0-69.4H239c-5.1-20.9-7.6-42.7-7.5-64.4h61.2v64.4zm0-68.9h-61.1c.5-22.1 3.5-44.2 8.9-65.2h52.2v65.2zm0-69.6h-51c1.7-6.2 3.6-12.3 5.7-18.2h45.3v18.2zm0-36.4h-38.1c4.5-10.1 9.5-19.8 15.2-28.9h23v28.9zm0-33.5h-20c5.6-8.5 11.7-16.4 18.4-23.7h1.6v23.7zm17.9 308.7v-257H369V94.4h-58.5V37.2c136.3 3.3 245.7 76.6 245.7 166.2S446.9 366.3 310.5 369.6z"/></svg>